<svg width="101" height="32" viewBox="0 0 101 32" fill="none" xmlns="http://www.w3.org/2000/svg">
    <g clip-path="url(#clip0_30_236)">
        <path
            d="M87.6477 18.8661L85.1701 22.5603C84.4638 23.6142 83.2804 24.2465 82.012 24.2465H77.3193L83.8721 14.3472L84.2456 13.7925L87.6477 18.8661Z"
            fill="#DB154C" />
        <path d="M88.5342 7.38403L91.9363 12.4613L88.5342 7.38773V7.38403Z" fill="#3FD88F" />
        <path
            d="M100.02 0.29126L92.9425 10.9635L92.8316 11.1336L89.4258 6.05634L92.0365 2.16242C92.8205 0.993868 94.137 0.29126 95.5459 0.29126L100.02 0.29126Z"
            fill="#3FD88F" />
        <path
            d="M99.7549 24.247H93.032L88.5353 17.5426L85.1332 12.4617L84.1311 10.9677V10.964L77.0532 0.291748H83.7835L88.5353 7.38439L91.9374 12.4617L93.2021 14.3476L99.7549 24.247Z"
            fill="white" />
    </g>
    <path
        d="M55.0828 14.1051V9.98111H69.2453L68.6418 11.0272C68.6418 10.9199 68.6418 10.8193 68.6418 10.7254C68.6418 10.6182 68.6418 10.5176 68.6418 10.4237C68.6418 9.65923 68.4608 8.92831 68.0986 8.23091C67.7365 7.5201 67.1732 6.94341 66.4088 6.50083C65.6578 6.04484 64.6921 5.81685 63.5119 5.81685C62.3317 5.81685 61.3124 6.07167 60.4541 6.5813C59.6092 7.07753 58.9587 7.79504 58.5027 8.73384C58.0602 9.67264 57.8389 10.8059 57.8389 12.1336C57.8389 13.5016 58.0535 14.6751 58.4826 15.6542C58.9252 16.6198 59.5757 17.3641 60.434 17.8872C61.3057 18.4102 62.3854 18.6717 63.6729 18.6717C64.5044 18.6717 65.2219 18.598 65.8254 18.4505C66.4289 18.2895 66.9184 18.0883 67.294 17.8469C67.6829 17.6055 67.9779 17.3373 68.1791 17.0422C68.3803 16.7472 68.501 16.4588 68.5412 16.1772H74.6971C74.6166 17.0758 74.3081 17.9609 73.7717 18.8327C73.2352 19.691 72.4909 20.4689 71.5387 21.1663C70.5865 21.8503 69.4264 22.3934 68.0584 22.7958C66.7038 23.1981 65.1548 23.3993 63.4113 23.3993C61.0509 23.3993 58.9923 22.9299 57.2354 21.9911C55.4785 21.0389 54.1172 19.7312 53.1516 18.0682C52.1859 16.3918 51.7031 14.4605 51.7031 12.2745C51.7031 10.0616 52.1926 8.12362 53.1717 6.4606C54.1641 4.78417 55.5388 3.48325 57.2957 2.55786C59.066 1.61906 61.1113 1.14966 63.4315 1.14966C65.8053 1.14966 67.8572 1.62577 69.5873 2.57798C71.3174 3.51678 72.6518 4.83781 73.5906 6.54107C74.5294 8.23091 74.9988 10.2024 74.9988 12.4555C74.9988 12.7908 74.9921 13.1127 74.9787 13.4212C74.9653 13.7296 74.9452 13.9576 74.9184 14.1051H55.0828Z"
        fill="white" />
    <path
        d="M26.0488 31.7077V1.552H32.3053V31.7077H26.0488ZM38.9037 23.3993C37.2139 23.3993 35.6649 22.95 34.2566 22.0514C32.8484 21.1394 31.7219 19.919 30.877 18.3901C30.032 16.8478 29.6096 15.1177 29.6096 13.1999C29.6096 13.1462 29.6096 13.0993 29.6096 13.059C29.6096 13.0054 29.6096 12.945 29.6096 12.878L32.3053 12.8176C32.3053 12.8579 32.3053 12.8981 32.3053 12.9383C32.3053 12.9786 32.3053 13.0188 32.3053 13.059C32.3053 14.0515 32.5467 14.9232 33.0295 15.6743C33.5123 16.4119 34.1359 16.9819 34.9004 17.3842C35.6648 17.7866 36.4628 17.9878 37.2943 17.9878C38.6623 17.9878 39.8492 17.5184 40.8551 16.5795C41.8744 15.6273 42.384 14.1454 42.384 12.1336C42.384 10.1219 41.8811 8.66008 40.8752 7.7481C39.8693 6.82271 38.6757 6.36001 37.2943 6.36001C36.4628 6.36001 35.6648 6.56118 34.9004 6.96353C34.1359 7.35246 33.5123 7.90904 33.0295 8.63326C32.5467 9.35747 32.3053 10.2225 32.3053 11.2284L29.6096 11.0674C29.6096 9.13619 30.032 7.43293 30.877 5.95767C31.7219 4.469 32.8484 3.29549 34.2566 2.43716C35.6649 1.57883 37.2139 1.14966 38.9037 1.14966C40.6338 1.14966 42.2499 1.57883 43.752 2.43716C45.254 3.28208 46.4678 4.52264 47.3932 6.15884C48.332 7.79504 48.8014 9.78664 48.8014 12.1336C48.8014 14.5879 48.3454 16.6533 47.4334 18.3297C46.5214 20.0062 45.3144 21.2736 43.8123 22.1319C42.3102 22.9768 40.674 23.3993 38.9037 23.3993Z"
        fill="white" />
    <path
        d="M8.02676 23.359C6.47103 23.359 5.08295 23.1109 3.8625 22.6147C2.65547 22.1185 1.70996 21.401 1.02598 20.4622C0.341992 19.5234 0 18.3834 0 17.0422C0 15.5267 0.415756 14.2929 1.24727 13.3407C2.07878 12.3885 3.17852 11.6642 4.54649 11.168C5.92787 10.6584 7.42325 10.3231 9.03262 10.1622C11.3796 9.93417 12.9957 9.72629 13.8809 9.53853C14.7794 9.35077 15.2287 9.02219 15.2287 8.55279C15.2287 8.53938 15.2287 8.52596 15.2287 8.51255C15.2287 7.72128 14.8465 7.09764 14.082 6.64165C13.331 6.18566 12.2782 5.95767 10.9236 5.95767C9.48861 5.95767 8.38887 6.21919 7.62442 6.74224C6.87338 7.25187 6.49786 8.03645 6.49786 9.09595H0.36211C0.36211 7.37928 0.824805 5.93084 1.7502 4.75064C2.689 3.57043 3.95638 2.67856 5.55235 2.07505C7.14831 1.45812 8.95215 1.14966 10.9639 1.14966C12.8415 1.14966 14.5783 1.438 16.1742 2.0147C17.7702 2.57798 19.051 3.42961 20.0166 4.56958C20.9957 5.70956 21.4852 7.15799 21.4852 8.9149C21.4852 9.19654 21.4852 9.47818 21.4852 9.75982C21.4852 10.028 21.4852 10.303 21.4852 10.5846V18.1487C21.4852 18.6986 21.4986 19.2283 21.5254 19.7379C21.5656 20.2342 21.6461 20.6902 21.7668 21.1059C21.9009 21.5753 22.0686 21.9643 22.2697 22.2727C22.4709 22.5812 22.6386 22.7958 22.7727 22.9165H16.6369C16.543 22.8226 16.3955 22.6281 16.1943 22.3331C16.0066 22.038 15.8456 21.696 15.7115 21.3071C15.5506 20.8377 15.4299 20.3683 15.3494 19.8989C15.2824 19.4161 15.2488 18.8528 15.2488 18.209L16.5363 19.0942C16.1608 19.9794 15.5506 20.7438 14.7057 21.3876C13.8742 22.0179 12.8817 22.5074 11.7283 22.8561C10.5884 23.1914 9.3545 23.359 8.02676 23.359ZM9.69649 18.6919C10.6755 18.6919 11.5875 18.5175 12.4324 18.1688C13.2908 17.8067 13.9882 17.2434 14.5246 16.479C15.0611 15.7145 15.3293 14.7154 15.3293 13.4815V11.329L16.8783 12.8377C15.9932 13.1596 14.9672 13.4279 13.8004 13.6424C12.647 13.8436 11.4936 14.0045 10.3402 14.1253C8.97227 14.2594 7.94629 14.4941 7.26231 14.8294C6.59173 15.1512 6.25645 15.7011 6.25645 16.479C6.25645 17.2166 6.54479 17.7732 7.12149 18.1487C7.69818 18.5108 8.55651 18.6919 9.69649 18.6919Z"
        fill="white" />
    <defs>
        <clipPath id="clip0_30_236">
            <rect width="22.9679" height="23.9552" fill="white" transform="translate(77.0508 0.292236)" />
        </clipPath>
    </defs>
</svg>