<svg width="101" height="32" viewBox="0 0 101 32" fill="none" xmlns="http://www.w3.org/2000/svg">
    <g clip-path="url(#clip0_85_1206)">
        <g clip-path="url(#clip1_85_1206)">
            <path
                d="M87.7663 19.0924L85.2887 22.7866C84.5824 23.8405 83.3991 24.4729 82.1307 24.4729H77.438L83.9907 14.5735L84.3642 14.0188L87.7663 19.0924Z"
                fill="#DB154C" />
            <path d="M88.6528 7.61035L92.0549 12.6876L88.6528 7.61405V7.61035Z" fill="#3FD88F" />
            <path
                d="M100.139 0.517578L93.0612 11.1898L92.9502 11.3599L89.5444 6.28266L92.1552 2.38873C92.9391 1.22019 94.2556 0.517578 95.6645 0.517578L100.139 0.517578Z"
                fill="#3FD88F" />
            <path
                d="M99.8735 24.4733H93.1507L88.654 17.7689L85.2519 12.688L84.2497 11.194V11.1903L77.1719 0.518066H83.9021L88.654 7.61071L92.0561 12.688L93.3208 14.5739L99.8735 24.4733Z"
                fill="white" />
        </g>
        <path
            d="M55.2015 14.3315V10.2074H69.364L68.7605 11.2535C68.7605 11.1462 68.7605 11.0456 68.7605 10.9518C68.7605 10.8445 68.7605 10.7439 68.7605 10.65C68.7605 9.88555 68.5794 9.15463 68.2173 8.45723C67.8552 7.74642 67.2919 7.16973 66.5274 6.72715C65.7764 6.27116 64.8108 6.04317 63.6306 6.04317C62.4504 6.04317 61.4311 6.29799 60.5728 6.80762C59.7278 7.30385 59.0774 8.02136 58.6214 8.96016C58.1788 9.89896 57.9575 11.0322 57.9575 12.36C57.9575 13.7279 58.1721 14.9014 58.6013 15.8805C59.0438 16.8461 59.6943 17.5904 60.5526 18.1135C61.4244 18.6365 62.504 18.8981 63.7915 18.8981C64.623 18.8981 65.3405 18.8243 65.944 18.6768C66.5476 18.5158 67.0371 18.3147 67.4126 18.0733C67.8015 17.8318 68.0966 17.5636 68.2978 17.2686C68.4989 16.9735 68.6196 16.6852 68.6599 16.4035H74.8157C74.7353 17.3021 74.4268 18.1872 73.8903 19.059C73.3539 19.9173 72.6096 20.6952 71.6573 21.3926C70.7051 22.0766 69.545 22.6197 68.1771 23.0221C66.8225 23.4244 65.2735 23.6256 63.53 23.6256C61.1696 23.6256 59.1109 23.1562 57.354 22.2174C55.5971 21.2652 54.2358 19.9576 53.2702 18.2945C52.3046 16.6181 51.8218 14.6869 51.8218 12.5008C51.8218 10.2879 52.3113 8.34994 53.2903 6.68692C54.2828 5.01048 55.6575 3.70957 57.4144 2.78418C59.1847 1.84538 61.2299 1.37598 63.5501 1.37598C65.9239 1.37598 67.9759 1.85208 69.706 2.8043C71.436 3.7431 72.7705 5.06413 73.7093 6.76739C74.6481 8.45723 75.1175 10.4287 75.1175 12.6818C75.1175 13.0171 75.1108 13.339 75.0974 13.6475C75.084 13.9559 75.0638 14.1839 75.037 14.3315H55.2015Z"
            fill="white" />
        <path
            d="M26.1675 31.934V1.77832H32.4239V31.934H26.1675ZM39.0224 23.6256C37.3325 23.6256 35.7835 23.1763 34.3753 22.2777C32.9671 21.3658 31.8405 20.1453 30.9956 18.6164C30.1507 17.0741 29.7282 15.344 29.7282 13.4262C29.7282 13.3725 29.7282 13.3256 29.7282 13.2854C29.7282 13.2317 29.7282 13.1714 29.7282 13.1043L32.4239 13.044C32.4239 13.0842 32.4239 13.1244 32.4239 13.1647C32.4239 13.2049 32.4239 13.2451 32.4239 13.2854C32.4239 14.2778 32.6653 15.1496 33.1481 15.9006C33.631 16.6382 34.2546 17.2082 35.019 17.6106C35.7835 18.0129 36.5815 18.2141 37.413 18.2141C38.781 18.2141 39.9679 17.7447 40.9737 16.8059C41.993 15.8537 42.5026 14.3717 42.5026 12.36C42.5026 10.3482 41.9997 8.8864 40.9939 7.97442C39.988 7.04903 38.7944 6.58633 37.413 6.58633C36.5815 6.58633 35.7835 6.7875 35.019 7.18985C34.2546 7.57878 33.631 8.13535 33.1481 8.85957C32.6653 9.58379 32.4239 10.4488 32.4239 11.4547L29.7282 11.2938C29.7282 9.3625 30.1507 7.65925 30.9956 6.18399C31.8405 4.69531 32.9671 3.52181 34.3753 2.66348C35.7835 1.80514 37.3325 1.37598 39.0224 1.37598C40.7524 1.37598 42.3685 1.80514 43.8706 2.66348C45.3727 3.5084 46.5864 4.74896 47.5118 6.38516C48.4506 8.02136 48.92 10.013 48.92 12.36C48.92 14.8143 48.464 16.8796 47.5521 18.5561C46.6401 20.2325 45.4331 21.4999 43.931 22.3582C42.4289 23.2031 40.7927 23.6256 39.0224 23.6256Z"
            fill="white" />
        <path
            d="M8.14542 23.5854C6.58968 23.5854 5.2016 23.3372 3.98115 22.841C2.77412 22.3448 1.82861 21.6273 1.14463 20.6885C0.460645 19.7497 0.118652 18.6097 0.118652 17.2686C0.118652 15.7531 0.534408 14.5192 1.36592 13.567C2.19743 12.6148 3.29717 11.8906 4.66514 11.3943C6.04652 10.8847 7.5419 10.5494 9.15127 10.3885C11.4983 10.1605 13.1144 9.95261 13.9995 9.76485C14.8981 9.57709 15.3474 9.24851 15.3474 8.77911C15.3474 8.76569 15.3474 8.75228 15.3474 8.73887C15.3474 7.94759 14.9651 7.32396 14.2007 6.86797C13.4496 6.41198 12.3968 6.18399 11.0423 6.18399C9.60726 6.18399 8.50752 6.44551 7.74307 6.96856C6.99203 7.47819 6.61651 8.26276 6.61651 9.32227H0.480762C0.480762 7.6056 0.943457 6.15716 1.86885 4.97695C2.80765 3.79674 4.07503 2.90488 5.671 2.30137C7.26696 1.68444 9.07081 1.37598 11.0825 1.37598C12.9601 1.37598 14.6969 1.66432 16.2929 2.24102C17.8888 2.8043 19.1696 3.65593 20.1353 4.7959C21.1143 5.93587 21.6038 7.38431 21.6038 9.14121C21.6038 9.42285 21.6038 9.7045 21.6038 9.98614C21.6038 10.2544 21.6038 10.5293 21.6038 10.8109V18.375C21.6038 18.9249 21.6172 19.4546 21.6441 19.9643C21.6843 20.4605 21.7648 20.9165 21.8855 21.3322C22.0196 21.8016 22.1872 22.1906 22.3884 22.499C22.5896 22.8075 22.7572 23.0221 22.8913 23.1428H16.7556C16.6617 23.0489 16.5142 22.8544 16.313 22.5594C16.1252 22.2643 15.9643 21.9223 15.8302 21.5334C15.6692 21.064 15.5485 20.5946 15.4681 20.1252C15.401 19.6424 15.3675 19.0791 15.3675 18.4354L16.655 19.3205C16.2795 20.2057 15.6692 20.9701 14.8243 21.6139C13.9928 22.2442 13.0004 22.7337 11.847 23.0824C10.707 23.4177 9.47315 23.5854 8.14542 23.5854ZM9.81514 18.9182C10.7942 18.9182 11.7062 18.7438 12.5511 18.3951C13.4094 18.033 14.1068 17.4697 14.6433 16.7053C15.1797 15.9408 15.448 14.9417 15.448 13.7078V11.5553L16.997 13.0641C16.1118 13.3859 15.0858 13.6542 13.9191 13.8688C12.7657 14.0699 11.6123 14.2309 10.4589 14.3516C9.09092 14.4857 8.06495 14.7204 7.38096 15.0557C6.71039 15.3775 6.3751 15.9274 6.3751 16.7053C6.3751 17.4429 6.66345 17.9995 7.24014 18.375C7.81683 18.7371 8.67517 18.9182 9.81514 18.9182Z"
            fill="white" />
    </g>
    <defs>
        <clipPath id="clip0_85_1206">
            <rect width="100.019" height="31.4155" fill="white" transform="translate(0.118652 0.518555)" />
        </clipPath>
        <clipPath id="clip1_85_1206">
            <rect width="22.9679" height="23.9552" fill="white" transform="translate(77.1694 0.518555)" />
        </clipPath>
    </defs>
</svg>