<svg width="101" height="32" viewBox="0 0 1566 492" fill="none" xmlns="http://www.w3.org/2000/svg">
    <g clip-path="url(#clip0_85_1206)">
        <g clip-path="url(#clip1_85_1206)">
            <path
                d="M1372.1 290.711L1333.32 348.532C1322.27 365.027 1303.74 374.925 1283.89 374.925H1210.44L1313 219.983L1318.85 211.301L1372.1 290.711Z"
                fill="#DB154C" />
            <path d="M1385.97 110.999L1439.22 190.466L1385.97 111.056V110.999Z" fill="#3FD88F" />
            <path
                d="M1565.75 -0.0151367L1454.97 167.023L1453.24 169.685L1399.93 90.2178L1440.79 29.2715C1453.06 10.9818 1473.67 -0.0151367 1495.72 -0.0151367L1565.75 -0.0151367Z"
                fill="#248936" />
            <path
                d="M1561.6 374.931H1456.37L1385.99 269.997L1332.74 190.472L1317.06 167.089V167.031L1206.28 -0.00732422H1311.62L1385.99 111.004L1439.24 190.472L1459.03 219.99L1561.6 374.931Z"
                fill="white" />
        </g>
        <path
            d="M862.406 216.194V151.647H1084.07L1074.63 168.02C1074.63 166.34 1074.63 164.766 1074.63 163.297C1074.63 161.617 1074.63 160.043 1074.63 158.574C1074.63 146.609 1071.79 135.169 1066.12 124.253C1060.46 113.128 1051.64 104.102 1039.68 97.1746C1027.92 90.0376 1012.81 86.4691 994.335 86.4691C975.863 86.4691 959.91 90.4574 946.475 98.434C933.251 106.201 923.07 117.431 915.933 132.125C909.006 146.819 905.543 164.556 905.543 185.337C905.543 206.748 908.901 225.116 915.618 240.439C922.546 255.553 932.726 267.203 946.161 275.389C959.805 283.576 976.703 287.669 996.854 287.669C1009.87 287.669 1021.1 286.515 1030.54 284.206C1039.99 281.687 1047.65 278.538 1053.53 274.76C1059.62 270.981 1064.24 266.783 1067.38 262.165C1070.53 257.547 1072.42 253.034 1073.05 248.626H1169.4C1168.14 262.69 1163.31 276.544 1154.92 290.188C1146.52 303.622 1134.87 315.797 1119.97 326.713C1105.06 337.418 1086.91 345.919 1065.5 352.217C1044.29 358.514 1020.05 361.663 992.761 361.663C955.816 361.663 923.595 354.316 896.097 339.622C868.598 324.718 847.292 304.252 832.179 278.223C817.065 251.984 809.508 221.757 809.508 187.541C809.508 152.906 817.17 122.574 832.494 96.5448C848.027 70.3059 869.543 49.9445 897.041 35.4606C924.75 20.7668 956.761 13.4199 993.076 13.4199C1030.23 13.4199 1062.35 20.8718 1089.43 35.7755C1116.5 50.4693 1137.39 71.1455 1152.08 97.8043C1166.78 124.253 1174.12 155.11 1174.12 190.375C1174.12 195.623 1174.02 200.661 1173.81 205.489C1173.6 210.317 1173.28 213.885 1172.86 216.194H862.406Z"
            fill="white" />
        <path
            d="M407.977 491.703V19.7173H505.9V491.703H407.977ZM609.177 361.663C582.728 361.663 558.483 354.631 536.442 340.567C514.402 326.293 496.769 307.191 483.545 283.261C470.32 259.121 463.708 232.043 463.708 202.025C463.708 201.186 463.708 200.451 463.708 199.821C463.708 198.982 463.708 198.037 463.708 196.987L505.9 196.043C505.9 196.673 505.9 197.302 505.9 197.932C505.9 198.562 505.9 199.191 505.9 199.821C505.9 215.355 509.679 228.999 517.235 240.754C524.792 252.299 534.553 261.22 546.518 267.518C558.483 273.815 570.973 276.964 583.987 276.964C605.398 276.964 623.975 269.617 639.719 254.923C655.672 240.019 663.649 216.824 663.649 185.337C663.649 153.851 655.777 130.97 640.034 116.696C624.29 102.212 605.608 94.9705 583.987 94.9705C570.973 94.9705 558.483 98.1192 546.518 104.416C534.553 110.504 524.792 119.215 517.235 130.55C509.679 141.886 505.9 155.425 505.9 171.168L463.708 168.649C463.708 138.422 470.32 111.763 483.545 88.6731C496.769 65.373 514.402 47.0057 536.442 33.5714C558.483 20.1371 582.728 13.4199 609.177 13.4199C636.255 13.4199 661.549 20.1371 685.06 33.5714C708.57 46.7958 727.567 66.2126 742.05 91.8218C756.744 117.431 764.091 148.603 764.091 185.337C764.091 223.751 756.954 256.077 742.68 282.316C728.406 308.555 709.514 328.392 686.004 341.826C662.494 355.051 636.885 361.663 609.177 361.663Z"
            fill="white" />
        <path
            d="M125.902 361.033C101.552 361.033 79.8264 357.15 60.7245 349.383C41.8325 341.616 27.0337 330.386 16.3282 315.692C5.62276 300.998 0.27002 283.156 0.27002 262.165C0.27002 238.445 6.77727 219.133 19.7918 204.229C32.8063 189.326 50.019 177.99 71.43 170.224C93.0508 162.247 116.456 156.999 141.645 154.48C178.38 150.912 203.674 147.658 217.528 144.719C231.592 141.781 238.624 136.638 238.624 129.291C238.624 129.081 238.624 128.871 238.624 128.661C238.624 116.276 232.642 106.516 220.677 99.3786C208.922 92.2416 192.444 88.6731 171.243 88.6731C148.782 88.6731 131.57 92.7664 119.605 100.953C107.85 108.93 101.972 121.209 101.972 137.792H5.93763C5.93763 110.924 13.1796 88.2533 27.6635 69.7811C42.3572 51.3089 62.1939 37.3498 87.1733 27.9038C112.153 18.2479 140.386 13.4199 171.873 13.4199C201.26 13.4199 228.444 17.933 253.423 26.9592C278.403 35.7755 298.449 49.1048 313.563 66.9473C328.886 84.7898 336.548 107.46 336.548 134.959C336.548 139.367 336.548 143.775 336.548 148.183C336.548 152.381 336.548 156.684 336.548 161.093V279.483C336.548 288.089 336.758 296.38 337.178 304.357C337.807 312.124 339.067 319.261 340.956 325.768C343.055 333.115 345.679 339.202 348.828 344.03C351.977 348.858 354.6 352.217 356.7 354.106H260.665C259.196 352.637 256.887 349.593 253.738 344.975C250.799 340.357 248.28 335.004 246.181 328.917C243.662 321.57 241.773 314.223 240.514 306.876C239.464 299.319 238.939 290.503 238.939 280.427L259.091 294.281C253.213 308.135 243.662 320.1 230.438 330.176C217.423 340.042 201.89 347.704 183.837 353.161C165.995 358.409 146.683 361.033 125.902 361.033ZM152.036 287.984C167.359 287.984 181.633 285.255 194.858 279.797C208.292 274.13 219.208 265.314 227.604 253.349C236 241.384 240.199 225.745 240.199 206.433V172.743L264.443 196.358C250.589 201.395 234.531 205.594 216.269 208.952C198.216 212.101 180.164 214.62 162.112 216.509C140.701 218.608 124.642 222.282 113.937 227.529C103.441 232.567 98.1937 241.174 98.1937 253.349C98.1937 264.894 102.707 273.605 111.733 279.483C120.759 285.15 134.193 287.984 152.036 287.984Z"
            fill="white" />
    </g>
    <defs>
        <clipPath id="clip0_85_1206">
            <rect width="1565.46" height="491.704" fill="white" transform="translate(0.27002)" />
        </clipPath>
        <clipPath id="clip1_85_1206">
            <rect width="359.485" height="374.939" fill="white" transform="translate(1206.24)" />
        </clipPath>
    </defs>
</svg>